<svg id="flow-connection-svgrepo-com" xmlns="http://www.w3.org/2000/svg" width="41" height="41" viewBox="0 0 41 41">
  <path id="Path_38" data-name="Path 38" d="M35.1,22.545H27.4a2.571,2.571,0,0,0-2.568,2.568v2.568H17.656l-5.668-5.668V14.841h2.568a2.571,2.571,0,0,0,2.568-2.568v-7.7A2.571,2.571,0,0,0,14.557,2h-7.7A2.571,2.571,0,0,0,4.284,4.568v7.7a2.571,2.571,0,0,0,2.568,2.568H9.42v7.173L3.376,28.057a1.283,1.283,0,0,0,0,1.816l6.42,6.42a1.283,1.283,0,0,0,1.816,0l6.044-6.044h7.173v2.568A2.571,2.571,0,0,0,27.4,35.385h7.7a2.571,2.571,0,0,0,2.568-2.568v-7.7A2.571,2.571,0,0,0,35.1,22.545ZM6.852,4.568h7.7v7.7h-7.7Zm3.852,29-4.6-4.6,4.6-4.6,4.6,4.6ZM27.4,32.817v-7.7h7.7v7.7Z" transform="translate(0.852 0.568)"/>
  <rect id="_Transparent_Rectangle_" data-name="&lt;Transparent Rectangle&gt;" width="41" height="41" fill="none"/>
</svg>
