<svg xmlns="http://www.w3.org/2000/svg" width="36.712" height="34.578" viewBox="0 0 36.712 34.578">
  <g id="chat-dot-round-svgrepo-com" transform="translate(-64 -96)">
    <path id="Path_36" data-name="Path 36" d="M68.537,127.127l5.544-1.849.97.485a16.3,16.3,0,0,0,7.306,1.7c8.68,0,15.734-6.834,15.734-14.423S91.036,98.622,82.356,98.622s-15.734,6.834-15.734,14.423a13.538,13.538,0,0,0,2.9,8.163l.9,1.18-1.9,4.736Zm-1.854,3.383a1.311,1.311,0,0,1-1.634-1.731L67.44,122.8A16.181,16.181,0,0,1,64,113.045C64,104.355,71.867,96,82.356,96s18.356,8.355,18.356,17.045S92.846,130.09,82.356,130.09a18.891,18.891,0,0,1-8.478-1.982l-7.2,2.4Z"/>
    <path id="Path_37" data-name="Path 37" d="M278.765,465a2.1,2.1,0,1,1,2.1-2.1A2.1,2.1,0,0,1,278.765,465Zm7.867,0a2.1,2.1,0,1,1,2.1-2.1A2.1,2.1,0,0,1,286.632,465ZM270.9,465a2.1,2.1,0,1,1,2.1-2.1A2.1,2.1,0,0,1,270.9,465Z" transform="translate(-196.409 -349.853)"/>
  </g>
</svg>
