<svg xmlns="http://www.w3.org/2000/svg" width="33.042" height="35.299" viewBox="0 0 33.042 35.299">
  <g id="dashboard-svgrepo-com" transform="translate(-4.75 -3.25)">
    <path id="Path_27" data-name="Path 27" d="M15.454,10H9.064A3.535,3.535,0,0,0,5.5,13.506V26.774a3.535,3.535,0,0,0,3.564,3.5h6.39a3.535,3.535,0,0,0,3.564-3.506V13.506A3.535,3.535,0,0,0,15.454,10Z" transform="translate(0 7.519)" fill="none" stroke="#000" stroke-linecap="round" stroke-linejoin="round" stroke-width="1.5" fill-rule="evenodd"/>
    <path id="Path_28" data-name="Path 28" d="M15.454,4H9.064A3.47,3.47,0,0,0,5.5,7.365V9.65a3.47,3.47,0,0,0,3.564,3.364h6.39A3.47,3.47,0,0,0,19.018,9.65V7.365A3.47,3.47,0,0,0,15.454,4Z" transform="translate(0)" fill="none" stroke="#000" stroke-linecap="round" stroke-linejoin="round" stroke-width="1.5" fill-rule="evenodd"/>
    <path id="Path_29" data-name="Path 29" d="M17.064,24.278h6.387a3.535,3.535,0,0,0,3.567-3.506V7.506A3.535,3.535,0,0,0,23.454,4h-6.39A3.535,3.535,0,0,0,13.5,7.506V20.772a3.535,3.535,0,0,0,3.564,3.506Z" transform="translate(10.024 0.001)" fill="none" stroke="#000" stroke-linecap="round" stroke-linejoin="round" stroke-width="1.5" fill-rule="evenodd"/>
    <path id="Path_30" data-name="Path 30" d="M17.064,24.013h6.387a3.47,3.47,0,0,0,3.567-3.364V18.365A3.47,3.47,0,0,0,23.454,15h-6.39A3.47,3.47,0,0,0,13.5,18.365v2.282A3.47,3.47,0,0,0,17.064,24.013Z" transform="translate(10.024 13.783)" fill="none" stroke="#000" stroke-linecap="round" stroke-linejoin="round" stroke-width="1.5" fill-rule="evenodd"/>
  </g>
</svg>
