<svg xmlns="http://www.w3.org/2000/svg" width="44.955" height="35.298" viewBox="0 0 44.955 35.298">
  <g id="id-card-svgrepo-com" transform="translate(-2.75 -4.25)">
    <path id="Path_31" data-name="Path 31" d="M3.5,9.828V33.97A4.828,4.828,0,0,0,8.328,38.8h33.8a4.828,4.828,0,0,0,4.828-4.828V9.828A4.828,4.828,0,0,0,42.127,5H8.328A4.828,4.828,0,0,0,3.5,9.828Z" transform="translate(0)" fill="none" stroke="#000" stroke-linecap="round" stroke-linejoin="round" stroke-width="1.5" fill-rule="evenodd"/>
    <path id="Path_32" data-name="Path 32" d="M15.5,10h7.242" transform="translate(16.97 7.071)" fill="none" stroke="#000" stroke-linecap="round" stroke-width="1.5"/>
    <path id="Path_33" data-name="Path 33" d="M15.5,13h7.242" transform="translate(16.97 11.313)" fill="none" stroke="#000" stroke-linecap="round" stroke-width="1.5"/>
    <path id="Path_34" data-name="Path 34" d="M17.157,12.828a4.828,4.828,0,1,1-1.414-3.414A4.828,4.828,0,0,1,17.157,12.828Z" transform="translate(5.657 4.242)" fill="none" stroke="#000" stroke-linecap="round" stroke-linejoin="round" stroke-width="1.5" fill-rule="evenodd"/>
    <path id="Path_35" data-name="Path 35" d="M5.5,18.828c6.719-7.573,14.611-5.193,19.313,0" transform="translate(2.828 12.728)" fill="none" stroke="#000" stroke-linecap="round" stroke-width="1.5"/>
  </g>
</svg>
