<svg xmlns="http://www.w3.org/2000/svg" width="36.152" height="47.687" viewBox="0 0 36.152 47.687">
  <g id="reporting-svgrepo-com" transform="translate(-56)">
    <g id="Group_26" data-name="Group 26" transform="translate(56)">
      <path id="Path_42" data-name="Path 42" d="M87.259,1.648H77.345a4.064,4.064,0,0,0-6.537,0H60.892A4.9,4.9,0,0,0,56,6.54V42.795a4.9,4.9,0,0,0,4.892,4.892H87.259a4.9,4.9,0,0,0,4.892-4.892V6.54A4.9,4.9,0,0,0,87.259,1.648Zm-13.184-.1A2.526,2.526,0,0,1,76.6,4.068v.824a.772.772,0,0,0,.772.772h3.3a.875.875,0,0,1,0,1.751H67.484a.875.875,0,1,1,0-1.751h3.3a.772.772,0,0,0,.772-.772V4.068A2.526,2.526,0,0,1,74.076,1.545ZM67.484,8.961H80.668a2.423,2.423,0,0,0,2.42-2.42c0-.017,0-.034,0-.051h4.173a.052.052,0,0,1,.051.051V42.795a.052.052,0,0,1-.051.051H60.892a.052.052,0,0,1-.051-.051V6.54a.052.052,0,0,1,.051-.051h4.173c0,.017,0,.034,0,.051A2.423,2.423,0,0,0,67.484,8.961ZM90.607,42.795a3.351,3.351,0,0,1-3.347,3.347H60.892a3.351,3.351,0,0,1-3.347-3.347V6.54a3.351,3.351,0,0,1,3.347-3.347H70.1a4.062,4.062,0,0,0-.1.875V4.12H67.484a2.415,2.415,0,0,0-1.817.824H60.892a1.6,1.6,0,0,0-1.6,1.6V42.795a1.6,1.6,0,0,0,1.6,1.6H87.259a1.6,1.6,0,0,0,1.6-1.6V6.54a1.6,1.6,0,0,0-1.6-1.6H82.485a2.415,2.415,0,0,0-1.817-.824H78.144V4.068a4.068,4.068,0,0,0-.1-.875h9.211A3.351,3.351,0,0,1,90.607,6.54Z" transform="translate(-56)"/>
      <path id="Path_43" data-name="Path 43" d="M224.772,35.193a.772.772,0,0,0,.772-.772V32.772a.772.772,0,0,0-1.545,0V34.42A.772.772,0,0,0,224.772,35.193Z" transform="translate(-206.697 -28.704)"/>
      <path id="Path_44" data-name="Path 44" d="M216.772,161.545h9.888a.772.772,0,0,0,0-1.545h-9.888a.772.772,0,1,0,0,1.545Z" transform="translate(-199.521 -143.521)"/>
      <path id="Path_45" data-name="Path 45" d="M136.226,145.874a.772.772,0,0,0,0,1.092l1.648,1.648a.773.773,0,0,0,1.093,0l3.3-3.3a.772.772,0,0,0-1.092-1.092l-2.75,2.75-1.1-1.1A.773.773,0,0,0,136.226,145.874Z" transform="translate(-127.76 -129.169)"/>
      <path id="Path_46" data-name="Path 46" d="M216.772,241.545h9.888a.772.772,0,0,0,0-1.545h-9.888a.772.772,0,1,0,0,1.545Z" transform="translate(-199.521 -215.281)"/>
      <path id="Path_47" data-name="Path 47" d="M141.17,224.227l-2.75,2.75-1.1-1.1a.772.772,0,0,0-1.092,1.092l1.648,1.648a.773.773,0,0,0,1.093,0l3.3-3.3a.773.773,0,0,0-1.093-1.092Z" transform="translate(-127.761 -200.929)"/>
      <path id="Path_48" data-name="Path 48" d="M216.772,321.545h9.888a.772.772,0,0,0,0-1.545h-9.888a.772.772,0,1,0,0,1.545Z" transform="translate(-199.521 -287.041)"/>
      <path id="Path_49" data-name="Path 49" d="M141.17,304.227l-2.75,2.75-1.1-1.1a.772.772,0,0,0-1.092,1.092l1.648,1.648a.773.773,0,0,0,1.093,0l3.3-3.3a.773.773,0,1,0-1.093-1.092Z" transform="translate(-127.761 -272.689)"/>
    </g>
  </g>
</svg>
