<svg xmlns="http://www.w3.org/2000/svg" width="33.166" height="33.798" viewBox="0 0 33.166 33.798">
  <path id="settings-svgrepo-com" d="M30.662,22.778,28.8,25.961,24.571,24.55l-.431.392a11,11,0,0,1-4.2,2.408l-.565.175-.871,4.3h-3.75l-.871-4.3-.565-.175a11,11,0,0,1-4.2-2.408l-.431-.392L4.457,25.959,2.594,22.776l3.34-2.895L5.8,19.3a10.562,10.562,0,0,1,0-4.783l.131-.581-3.34-2.895L4.457,7.859l4.229,1.41.431-.392a11.03,11.03,0,0,1,4.2-2.41l.565-.173L14.753,2H18.5l.871,4.3.565.173a11,11,0,0,1,4.2,2.41l.431.392L28.8,7.859l1.863,3.183-3.34,2.895.131.581a10.562,10.562,0,0,1,0,4.783l-.131.581,3.34,2.9Zm-.946-5.869a12.523,12.523,0,0,0-.2-2.241l3.7-3.2-3.511-6L25.032,7.02a13.226,13.226,0,0,0-3.94-2.261L20.129.01h-7l-.962,4.748A13,13,0,0,0,8.222,7.018L3.556,5.463l-3.511,6,3.7,3.2a12.469,12.469,0,0,0,0,4.479l-3.7,3.207,3.511,6L8.224,26.8a13.233,13.233,0,0,0,3.94,2.262l.962,4.75h7l.962-4.748a12.992,12.992,0,0,0,3.94-2.262L29.7,28.357l3.511-6-3.7-3.207A12.525,12.525,0,0,0,29.716,16.909ZM16.628,9.95a6.958,6.958,0,1,0,6.958,6.958A6.966,6.966,0,0,0,16.628,9.95m0,11.929a4.97,4.97,0,1,1,4.97-4.97,4.977,4.977,0,0,1-4.97,4.97" transform="translate(-0.045 -0.01)" fill-rule="evenodd"/>
</svg>
