<svg xmlns="http://www.w3.org/2000/svg" width="25.631" height="25.631" viewBox="0 0 25.631 25.631">
  <g id="check-mark-svgrepo-com_1_" data-name="check-mark-svgrepo-com (1)" transform="translate(0 -0.001)">
    <g id="Group_9" data-name="Group 9" transform="translate(0 0.001)">
      <path id="Path_15" data-name="Path 15" d="M12.816,0A12.815,12.815,0,1,0,25.631,12.816,12.83,12.83,0,0,0,12.816,0Zm0,23.53A10.714,10.714,0,1,1,23.53,12.816,10.727,10.727,0,0,1,12.816,23.531Z" transform="translate(0 -0.001)" fill="#6fefc1"/>
      <path id="Path_16" data-name="Path 16" d="M78.071,90.617l-7.609,7.609-3.479-3.479A1.05,1.05,0,0,0,65.5,96.233l4.222,4.222a1.05,1.05,0,0,0,1.486,0L79.557,92.1a1.05,1.05,0,0,0-1.486-1.486Z" transform="translate(-59.712 -82.72)" fill="#6fefc1"/>
    </g>
  </g>
</svg>
