<svg xmlns="http://www.w3.org/2000/svg" width="25.315" height="25.315" viewBox="0 0 25.315 25.315">
  <g id="close-circle-svgrepo-com" transform="translate(-1.25 -1.25)">
    <path id="Path_50" data-name="Path 50" d="M10.257,9.009a.883.883,0,0,0-1.249,1.249l2.319,2.319L9.009,14.9a.883.883,0,0,0,1.249,1.249l2.319-2.319L14.9,16.145A.883.883,0,0,0,16.145,14.9l-2.319-2.319,2.319-2.319A.883.883,0,0,0,14.9,9.009l-2.319,2.319Z" transform="translate(1.331 1.331)" fill="#767677"/>
    <path id="Path_51" data-name="Path 51" d="M13.908,1.25A12.658,12.658,0,1,0,26.565,13.908,12.658,12.658,0,0,0,13.908,1.25ZM3.016,13.908A10.891,10.891,0,1,1,13.908,24.8,10.891,10.891,0,0,1,3.016,13.908Z" transform="translate(0 0)" fill="#767677" fill-rule="evenodd"/>
  </g>
</svg>
