<svg xmlns="http://www.w3.org/2000/svg" width="30.111" height="30.111" viewBox="0 0 30.111 30.111">
  <path id="facebook-rounded-svgrepo-com" d="M-115.241,145h-25.406A2.352,2.352,0,0,0-143,147.352v25.406a2.352,2.352,0,0,0,2.352,2.352h25.406a2.352,2.352,0,0,0,2.352-2.352V147.352A2.352,2.352,0,0,0-115.241,145Zm-9.38,12.5-.171,2.252H-127.1v7.822h-2.917v-7.822h-1.558V157.5h1.558v-1.511a4.075,4.075,0,0,1,.5-2.335,2.769,2.769,0,0,1,2.417-1.135,9.669,9.669,0,0,1,2.788.282l-.388,2.305a5.217,5.217,0,0,0-1.253-.188c-.606,0-1.147.218-1.147.823V157.5Z" transform="translate(143 -145)" fill="#6feec1"/>
</svg>
