<svg xmlns="http://www.w3.org/2000/svg" width="30.937" height="30.937" viewBox="0 0 30.937 30.937">
  <path id="linkedin-rounded-svgrepo-com" d="M-114.48,145h-26.1A2.416,2.416,0,0,0-143,147.417v26.1a2.416,2.416,0,0,0,2.417,2.417h26.1a2.416,2.416,0,0,0,2.417-2.417v-26.1A2.416,2.416,0,0,0-114.48,145Zm-17.378,21.94h-3.015v-9.65h3.015Zm-1.589-10.858h-.024a1.674,1.674,0,0,1-1.8-1.674,1.69,1.69,0,0,1,1.843-1.674,1.683,1.683,0,0,1,1.819,1.674A1.682,1.682,0,0,1-133.447,156.082Zm13.65,10.858h-3.42v-4.991c0-1.305-.532-2.2-1.71-2.2a1.724,1.724,0,0,0-1.631,1.184,2.28,2.28,0,0,0-.073.792v5.215h-3.39s.042-8.846,0-9.65h3.39v1.517a3.085,3.085,0,0,1,3.009-1.607c2.145,0,3.825,1.39,3.825,4.375Z" transform="translate(143 -145)" fill="#70edc1"/>
</svg>
