<svg xmlns="http://www.w3.org/2000/svg" width="30.937" height="30.937" viewBox="0 0 30.937 30.937">
  <g id="youtube-rounded-svgrepo-com" transform="translate(0)">
    <path id="Path_22" data-name="Path 22" d="M78.9,357.846l5.064-2.973L78.9,351.9Z" transform="translate(-65.492 -339.398)" fill="#70edc0"/>
    <path id="Path_23" data-name="Path 23" d="M-114.48,145h-26.1A2.416,2.416,0,0,0-143,147.417v26.1a2.416,2.416,0,0,0,2.417,2.417h26.1a2.416,2.416,0,0,0,2.417-2.417v-26.1A2.416,2.416,0,0,0-114.48,145Zm-5.317,18.236h0a2.61,2.61,0,0,1-2.665,2.665H-132.6a2.61,2.61,0,0,1-2.665-2.665v-5.529a2.61,2.61,0,0,1,2.665-2.665h10.139a2.61,2.61,0,0,1,2.665,2.665Z" transform="translate(143 -145)" fill="#70edc0"/>
  </g>
</svg>
